<?xml version="1.0" standalone="no"?>
<svg xmlns:xlink="http://www.w3.org/1999/xlink" id="wave" style="transform:rotate(180deg); transition: 0.3s" viewBox="0 0 1440 490" version="1.1" xmlns="http://www.w3.org/2000/svg"><defs><linearGradient id="sw-gradient-0" x1="0" x2="0" y1="1" y2="0"><stop stop-color="rgba(0, 219, 222, 1)" offset="0%"/><stop stop-color="rgba(0, 255, 85, 1)" offset="100%"/></linearGradient></defs><path style="transform:translate(0, 0px); opacity:1" fill="url(#sw-gradient-0)" d="M0,245L60,236.8C120,229,240,212,360,220.5C480,229,600,261,720,294C840,327,960,359,1080,343C1200,327,1320,261,1440,196C1560,131,1680,65,1800,49C1920,33,2040,65,2160,65.3C2280,65,2400,33,2520,81.7C2640,131,2760,261,2880,302.2C3000,343,3120,294,3240,269.5C3360,245,3480,245,3600,236.8C3720,229,3840,212,3960,220.5C4080,229,4200,261,4320,245C4440,229,4560,163,4680,171.5C4800,180,4920,261,5040,318.5C5160,376,5280,408,5400,416.5C5520,425,5640,408,5760,400.2C5880,392,6000,392,6120,334.8C6240,278,6360,163,6480,171.5C6600,180,6720,310,6840,310.3C6960,310,7080,180,7200,147C7320,114,7440,180,7560,212.3C7680,245,7800,245,7920,245C8040,245,8160,245,8280,253.2C8400,261,8520,278,8580,285.8L8640,294L8640,490L8580,490C8520,490,8400,490,8280,490C8160,490,8040,490,7920,490C7800,490,7680,490,7560,490C7440,490,7320,490,7200,490C7080,490,6960,490,6840,490C6720,490,6600,490,6480,490C6360,490,6240,490,6120,490C6000,490,5880,490,5760,490C5640,490,5520,490,5400,490C5280,490,5160,490,5040,490C4920,490,4800,490,4680,490C4560,490,4440,490,4320,490C4200,490,4080,490,3960,490C3840,490,3720,490,3600,490C3480,490,3360,490,3240,490C3120,490,3000,490,2880,490C2760,490,2640,490,2520,490C2400,490,2280,490,2160,490C2040,490,1920,490,1800,490C1680,490,1560,490,1440,490C1320,490,1200,490,1080,490C960,490,840,490,720,490C600,490,480,490,360,490C240,490,120,490,60,490L0,490Z"/></svg>